<svg width="60" height="60" viewBox="0 0 60 60" fill="none" xmlns="http://www.w3.org/2000/svg">
<path d="M30 10C18.975 10 10 18.975 10 30C10 41.025 18.975 50 30 50C41.025 50 50 41.025 50 30C50 18.975 41.025 10 30 10ZM23.75 41.25V18.75L41.25 30L23.75 41.25Z" fill="#5AB060"/>
<path d="M30 5C16.2 5 5 16.2 5 30C5 43.8 16.2 55 30 55C43.8 55 55 43.8 55 30C55 16.2 43.8 5 30 5ZM30 50C18.975 50 10 41.025 10 30C10 18.975 18.975 10 30 10C41.025 10 50 18.975 50 30C50 41.025 41.025 50 30 50Z" fill="#5AB060"/>
<path d="M23.75 41.25L41.25 30L23.75 18.75V41.25Z" fill="white"/>
</svg>
