<svg width="24" height="24" viewBox="0 0 24 24" fill="none" xmlns="http://www.w3.org/2000/svg">
<path d="M2.87002 8.44745C2.87002 8.25745 2.94002 8.06745 3.09002 7.91745C3.38002 7.62745 3.86002 7.62745 4.15002 7.91745L10.67 14.4375C11.15 14.9175 11.93 14.9175 12.41 14.4375L18.93 7.91745C19.22 7.62745 19.7 7.62745 19.99 7.91745C20.28 8.20745 20.28 8.68745 19.99 8.97745L13.47 15.4975C12.96 16.0075 12.27 16.2975 11.54 16.2975C10.81 16.2975 10.12 16.0175 9.61002 15.4975L3.09002 8.97745C2.95002 8.82745 2.87002 8.63745 2.87002 8.44745Z" fill="white"/>
</svg>
